<?xml version="1.0" encoding="utf-8"?>
<svg width="160" height="160" viewBox="0 0 144 158" fill="none" xmlns="http://www.w3.org/2000/svg">
  <rect x="3" y="43.647" width="111.213" height="111.353" rx="6" stroke="#1553ff" stroke-width="6"/>
  <path d="M30.4754 25H131.656C136.626 25 140.656 29.0294 140.656 34V136.094" stroke="#1553ff" stroke-width="6"/>
  <line y1="-3" x2="33.6237" y2="-3" transform="matrix(0.813406, -0.581697, 0.580779, 0.814061, 115.650002, 155.653)" stroke="#1553ff" stroke-width="6"/>
  <line y1="-3" x2="33.6237" y2="-3" transform="matrix(0.813406, -0.581697, 0.580779, 0.814061, 113.306, 47.688202)" stroke="#1553ff" stroke-width="6"/>
  <line y1="-3" x2="33.6237" y2="-3" transform="matrix(0.813406, -0.581697, 0.580779, 0.814061, 5.46997, 46.123501)" stroke="#1553ff" stroke-width="6"/>
  <line x1="73.5" y1="-1.09278e-07" x2="73.5" y2="36" stroke="#1553ff" stroke-width="5"/>
  <path fill="#A0CEC7" d="M 86.543 71.809 C 86.543 66.773 74.406 62.329 59.367 62.329 C 44.327 62.329 31.662 67.069 31.662 72.105 C 31.662 72.698 31.926 73.586 32.19 73.883 L 30.871 72.401 L 30.871 125.724 L 31.926 125.724 C 48.021 95.211 85.752 75.068 85.752 75.068 C 85.224 75.364 84.696 75.364 84.433 75.66 C 85.488 74.475 86.543 72.994 86.543 71.809 Z" style=""/>
  <path fill="#222" d="M 87.599 72.401 C 87.863 66.181 74.406 61.737 58.839 61.737 C 43.272 61.737 30.079 65.884 30.079 72.401 L 30.079 125.724 C 30.079 125.724 30.079 119.799 30.079 125.724 C 30.079 131.648 43.799 135.795 58.839 135.795 C 73.878 135.795 87.599 131.944 87.599 125.724 L 87.599 72.401 Z M 58.839 63.514 C 74.934 63.514 85.752 67.958 85.752 72.105 C 85.752 76.549 74.934 80.696 58.839 80.696 C 42.744 80.696 31.926 76.549 31.926 72.401 C 31.926 68.254 42.744 63.514 58.839 63.514 Z M 85.752 125.724 C 84.96 129.871 74.142 133.722 58.839 133.722 C 43.535 133.722 32.718 129.575 31.926 125.724 L 31.926 109.727 C 35.092 114.17 45.646 117.133 58.839 117.133 C 71.768 117.133 82.586 114.17 85.752 110.023 L 85.752 125.724 Z M 85.752 107.653 C 84.696 111.801 74.142 115.652 58.839 115.652 C 43.535 115.652 32.718 111.504 31.926 107.653 L 31.926 107.949 L 31.926 93.138 C 35.092 97.581 45.646 100.247 58.839 100.247 C 71.768 100.247 82.586 97.285 85.752 93.138 L 85.752 107.653 Z M 85.752 90.768 C 84.696 94.915 74.142 98.766 58.839 98.766 C 43.535 98.766 32.718 94.619 31.926 90.768 L 31.926 91.36 L 31.926 75.364 C 35.092 79.215 45.91 82.77 58.839 82.77 C 71.768 82.77 82.586 79.807 85.752 75.66 L 85.752 90.768 Z" style=""/>
  <ellipse fill="none" stroke="#222" stroke-width=".497" stroke-miterlimit="10" cx="78.892" cy="87.509" rx="2.375" ry="2.666" style=""/>
  <ellipse fill="none" stroke="#222" stroke-width=".497" stroke-miterlimit="10" cx="78.892" cy="105.283" rx="2.375" ry="2.666" style=""/>
  <ellipse fill="none" stroke="#222" stroke-width=".497" stroke-miterlimit="10" cx="78.892" cy="123.057" rx="2.375" ry="2.666" style=""/>
</svg>