<?xml version="1.0" encoding="utf-8"?>
<svg width="160" height="160" viewBox="0 0 144 158" fill="none" xmlns="http://www.w3.org/2000/svg">
  <rect x="3" y="43.647" width="111.213" height="111.353" rx="6" stroke="#28339a" stroke-width="6"/>
  <path d="M30.4754 25H131.656C136.626 25 140.656 29.0294 140.656 34V136.094" stroke="#28339a" stroke-width="6"/>
  <line y1="-3" x2="33.6237" y2="-3" transform="matrix(0.813406, -0.581697, 0.580779, 0.814061, 115.650002, 155.653)" stroke="#28339a" stroke-width="6"/>
  <line y1="-3" x2="33.6237" y2="-3" transform="matrix(0.813406, -0.581697, 0.580779, 0.814061, 113.306, 47.688202)" stroke="#28339a" stroke-width="6"/>
  <line y1="-3" x2="33.6237" y2="-3" transform="matrix(0.813406, -0.581697, 0.580779, 0.814061, 5.46997, 46.123501)" stroke="#28339a" stroke-width="6"/>
  <line x1="73.5" y1="-1.09278e-07" x2="73.5" y2="36" stroke="#28339a" stroke-width="5"/>
  <path d="M 59.594 62.187 L 22.374 74.993 L 28.256 122.667 L 59.634 139.528 L 91.174 122.439 L 97.053 74.766 L 59.594 62.187 Z" fill="#B3B3B3" style=""/>
  <path d="M 93.341 77.522 L 59.508 66.242 L 59.508 135.5 L 87.861 120.158 L 93.34 77.522 L 93.341 77.522 Z" fill="#A6120D" style=""/>
  <path d="M 26.551 77.725 L 31.591 120.362 L 59.507 135.5 L 59.507 66.241 L 26.551 77.725 Z" fill="#DD1B16" style=""/>
  <path d="M 68.821 103.111 L 59.508 107.369 L 49.692 107.369 L 45.078 118.653 L 36.495 118.807 L 59.508 68.757 L 68.821 103.111 Z M 67.921 100.968 L 59.569 84.805 L 52.719 100.689 L 59.507 100.689 L 67.921 100.968 Z" fill="#F2F2F2" style=""/>
  <path d="M 59.507 68.757 L 59.569 84.805 L 67.341 100.702 L 59.525 100.702 L 59.507 107.359 L 70.316 107.369 L 75.368 118.809 L 83.58 118.958 L 59.507 68.757 Z" fill="#B3B3B3" style=""/>
</svg>