<?xml version="1.0" encoding="utf-8"?>
<svg width="160" height="160" viewBox="0 0 144 158" fill="none" xmlns="http://www.w3.org/2000/svg">
  <rect x="3" y="43.647" width="111.213" height="111.353" rx="6" stroke="#28339a" stroke-width="6"/>
  <path d="M30.4754 25H131.656C136.626 25 140.656 29.0294 140.656 34V136.094" stroke="#28339a" stroke-width="6"/>
  <line y1="-3" x2="33.6237" y2="-3" transform="matrix(0.813406, -0.581697, 0.580779, 0.814061, 115.650002, 155.653)" stroke="#28339a" stroke-width="6"/>
  <line y1="-3" x2="33.6237" y2="-3" transform="matrix(0.813406, -0.581697, 0.580779, 0.814061, 113.306, 47.688202)" stroke="#28339a" stroke-width="6"/>
  <line y1="-3" x2="33.6237" y2="-3" transform="matrix(0.813406, -0.581697, 0.580779, 0.814061, 5.46997, 46.123501)" stroke="#28339a" stroke-width="6"/>
  <line x1="73.5" y1="-1.09278e-07" x2="73.5" y2="36" stroke="#28339a" stroke-width="5"/>
  <path d="M 101.355 74.134 C 101.384 74.246 101.398 74.359 101.4 74.473 L 101.4 92.304 C 101.4 92.77 101.152 93.201 100.754 93.432 L 85.971 102.048 L 85.971 119.127 C 85.971 119.591 85.727 120.02 85.329 120.255 L 54.469 138.238 C 54.398 138.279 54.321 138.305 54.244 138.332 C 54.215 138.342 54.188 138.36 54.158 138.368 C 53.941 138.427 53.715 138.427 53.499 138.368 C 53.464 138.358 53.432 138.339 53.398 138.326 C 53.328 138.3 53.254 138.277 53.186 138.238 L 22.333 120.255 C 21.934 120.024 21.688 119.593 21.688 119.127 L 21.688 65.634 C 21.688 65.517 21.704 65.403 21.733 65.293 C 21.743 65.256 21.765 65.221 21.778 65.184 C 21.802 65.116 21.824 65.046 21.86 64.983 C 21.884 64.94 21.919 64.906 21.948 64.867 C 21.985 64.815 22.019 64.762 22.062 64.716 C 22.099 64.679 22.147 64.651 22.189 64.619 C 22.235 64.58 22.277 64.537 22.33 64.506 L 22.332 64.506 L 37.759 55.515 C 38.156 55.284 38.645 55.284 39.043 55.515 L 54.471 64.506 L 54.474 64.506 C 54.525 64.539 54.569 64.58 54.615 64.617 C 54.657 64.649 54.703 64.679 54.74 64.714 C 54.785 64.762 54.817 64.815 54.856 64.867 C 54.883 64.906 54.92 64.94 54.943 64.983 C 54.98 65.048 55 65.116 55.026 65.184 C 55.039 65.221 55.061 65.256 55.071 65.295 C 55.1 65.407 55.114 65.52 55.116 65.634 L 55.116 99.045 L 67.972 91.552 L 67.972 74.472 C 67.972 74.358 67.988 74.242 68.017 74.134 C 68.028 74.095 68.049 74.06 68.061 74.023 C 68.087 73.955 68.11 73.885 68.145 73.822 C 68.169 73.779 68.204 73.745 68.232 73.706 C 68.27 73.654 68.302 73.601 68.347 73.555 C 68.384 73.518 68.431 73.49 68.472 73.458 C 68.521 73.419 68.562 73.376 68.614 73.345 L 68.615 73.345 L 84.044 64.354 C 84.441 64.123 84.93 64.123 85.329 64.354 L 100.756 73.345 C 100.81 73.378 100.852 73.419 100.9 73.456 C 100.94 73.488 100.987 73.518 101.024 73.553 C 101.069 73.601 101.101 73.654 101.14 73.706 C 101.168 73.745 101.204 73.779 101.226 73.822 C 101.263 73.885 101.284 73.955 101.31 74.023 C 101.324 74.06 101.345 74.095 101.355 74.134 Z M 98.828 91.552 L 98.828 76.724 L 93.429 79.87 L 85.971 84.217 L 85.971 99.045 L 98.829 91.552 L 98.828 91.552 Z M 83.401 118.374 L 83.401 103.537 L 76.064 107.778 L 55.114 119.882 L 55.114 134.859 L 83.401 118.374 Z M 24.26 67.885 L 24.26 118.374 L 52.543 134.858 L 52.543 119.884 L 37.767 111.419 L 37.762 111.415 L 37.756 111.412 C 37.706 111.383 37.664 111.341 37.618 111.305 C 37.578 111.272 37.531 111.246 37.496 111.211 L 37.493 111.206 C 37.451 111.165 37.422 111.115 37.387 111.069 C 37.355 111.025 37.316 110.988 37.29 110.943 L 37.289 110.938 C 37.26 110.889 37.242 110.83 37.221 110.775 C 37.2 110.726 37.173 110.681 37.16 110.629 L 37.16 110.627 C 37.144 110.566 37.141 110.501 37.135 110.437 C 37.128 110.388 37.115 110.34 37.115 110.291 L 37.115 75.378 L 29.659 71.03 L 24.26 67.887 L 24.26 67.885 Z M 38.403 58.144 L 25.549 65.634 L 38.4 73.124 L 51.252 65.633 L 38.4 58.144 L 38.403 58.144 Z M 45.087 104.889 L 52.544 100.543 L 52.544 67.885 L 47.146 71.031 L 39.687 75.378 L 39.687 108.037 L 45.087 104.889 Z M 84.686 66.983 L 71.834 74.473 L 84.686 81.963 L 97.537 74.472 L 84.686 66.983 Z M 83.401 84.217 L 75.942 79.87 L 70.543 76.724 L 70.543 91.552 L 78 95.897 L 83.401 99.045 L 83.401 84.217 Z M 53.827 117.632 L 72.678 106.737 L 82.102 101.293 L 69.259 93.807 L 54.472 102.425 L 40.995 110.28 L 53.827 117.632 Z" fill="#ff2d20" style=""/>
</svg>